#!OML:ASF X:\für Bonn\!DataBase\2005_08_12_Daniel\c3d\Daniel.ASF
:FULLY-SPECIFIED
:DEGREES
157
root 4.92648 17.2393 -1.58997 -862.859 -73.7497 815.031
lowerback 39.9898 5.48855 -0.377722
upperback 13.2626 3.33202 -10.6177
thorax -4.36637 0.967847 -12.4605
lowerneck 13.2309 7.06329 0.642554
upperneck 30.8687 7.02988 2.43249
head 7.48238 2.74118 0.736055
rclavicle -3.41164e-014 -3.65764e-014
rhumerus -41.3402 19.0982 -93.8139
rradius 80.6392
rwrist -5.39745
rhand -25.3403 20.5434
rfingers 7.12502
rthumb 1.1829 -9.43307
lclavicle -3.41164e-014 -3.65764e-014
lhumerus -51.4721 21.1347 59.4031
lradius 125.693
lwrist 206.24
lhand -9.87218 18.2799
lfingers 7.12502
lthumb 16.1067 47.6306
rfemur 41.6975 7.62644 9.4943
rtibia 13.913
rfoot -9.19285 0.841499
rtoes -6.49738
lfemur -76.3145 3.94082 -14.933
ltibia 60.4848
lfoot 9.64698 5.40249
ltoes -20.3617
158
root 4.87906 17.2812 -1.60556 -863.167 -73.7888 815.209
lowerback 40.0165 5.59282 -0.00144227
upperback 13.3927 3.60637 -10.6227
thorax -4.16126 1.12482 -12.775
lowerneck 13.372 7.28918 1.18955
upperneck 31.4199 7.24912 2.76189
head 7.66931 2.9093 0.764627
rclavicle -3.46134e-014 0
rhumerus -41.9397 18.324 -94.097
rradius 80.4908
rwrist -5.26899
rhand -24.9285 20.5439
rfingers 7.12502
rthumb 1.58059 -9.42998
lclavicle -3.46134e-014 0
lhumerus -51.8848 22.1919 59.3323
lradius 125.967
lwrist 206.048
lhand -9.45469 18.4546
lfingers 7.12502
lthumb 16.5087 47.7723
rfemur 43.619 7.4758 9.40868
rtibia 10.8951
rfoot -7.94895 0.818867
rtoes -6.12334
lfemur -74.873 2.86142 -12.882
ltibia 55.1165
lfoot 2.47814 6.91904
ltoes -22.0724
159
root 4.83117 17.314 -1.61967 -863.768 -73.8055 815.689
lowerback 40.0775 5.69077 0.399751
upperback 13.5006 3.87787 -10.6296
thorax -3.98703 1.28163 -13.1064
lowerneck 13.6109 7.53879 1.60312
upperneck 31.7221 7.5012 3.13884
head 7.74612 3.08985 0.825886
rclavicle 1.35174e-014 -3.97569e-014
rhumerus -42.5209 17.532 -94.4126
rradius 80.2133
rwrist -5.06624
rhand -24.4746 20.3427
rfingers 7.12502
rthumb 2.01896 -9.6275
lclavicle 1.35174e-014 -3.97569e-014
lhumerus -52.4697 23.3061 59.2291
lradius 126.298
lwrist 205.913
lhand -9.03052 18.6538
lfingers 7.12502
lthumb 16.9171 47.937
rfemur 45.9215 7.27823 9.2802
rtibia 7.11617
rfoot -6.32728 0.845599
rtoes -6.00606
lfemur -73.4734 1.76851 -10.5984
ltibia 50.2736
lfoot -4.55292 8.90374
ltoes -23.477
160
root 4.7866 17.3424 -1.63359 -864.634 -73.8174 816.454
lowerback 40.1621 5.78181 0.843294
upperback 13.5843 4.15706 -10.6282
thorax -3.83929 1.44479 -13.4568
lowerneck 13.9088 7.79265 1.95327
upperneck 31.918 7.76863 3.4958
head 7.77458 3.27194 0.887781
rclavicle 4.99446e-014 -3.33958e-014
rhumerus -43.0979 16.7245 -94.7506
rradius 79.7952
rwrist -4.89601
rhand -24.1344 20.1733
rfingers 7.12502
rthumb 2.34754 -9.79354
lclavicle 4.99446e-014 -3.33958e-014
lhumerus -53.1982 24.3527 59.0938
lradius 126.613
lwrist 205.945
lhand -8.54031 18.9517
lfingers 7.12502
lthumb 17.3889 48.1939
rfemur 49.9845 7.11867 9.21846
rtibia -4.77083e-015
rfoot -3.17994 0.549536
rtoes -5.96114
lfemur -72.2635 0.651701 -8.09087
ltibia 46.1665
lfoot -10.4315 11.0883
ltoes -23.6463
161
root 4.74306 17.3631 -1.64588 -865.705 -73.8187 817.412
lowerback 40.3005 5.85788 1.31898
upperback 13.6553 4.42509 -10.6275
thorax -3.71815 1.60353 -13.825
lowerneck 14.2165 8.06603 2.25047
upperneck 32.0569 8.06406 3.86269
head 7.7782 3.46363 0.960764
rclavicle 3.65764e-014 -5.24792e-014
rhumerus -43.6088 15.9427 -95.1067
rradius 79.2099
rwrist -4.7327
rhand -23.8723 19.9001
rfingers 7.12502
rthumb 2.60073 -10.0638
lclavicle 3.65764e-014 -5.24792e-014
lhumerus -53.9833 25.3626 58.9727
lradius 126.833
lwrist 206.09
lhand -7.97466 19.3891
lfingers 7.12502
lthumb 17.9332 48.5823
rfemur 50.1912 6.98762 9.2084
rtibia -1.43125e-014
rfoot -3.21815 0.827362
rtoes -5.89635
lfemur -71.2303 -0.415431 -5.57367
ltibia 42.9183
lfoot -14.7161 13.0197
ltoes -23.6895
162
root 4.69618 17.3736 -1.65723 -866.838 -73.8007 818.439
lowerback 40.4757 5.92307 1.78244
upperback 13.7046 4.67293 -10.6263
thorax -3.63301 1.75107 -14.1814
lowerneck 14.6221 8.36359 2.44898
upperneck 32.0859 8.39522 4.22634
head 7.72245 3.6612 1.04281
rclavicle -4.12975e-014 4.6118e-014
rhumerus -44.028 15.1349 -95.4714
rradius 78.4228
rwrist -4.59662
rhand -23.74 19.6393
rfingers 7.12502
rthumb 2.7285 -10.323
lclavicle -4.12975e-014 4.6118e-014
lhumerus -54.7676 26.3243 58.861
lradius 126.998
lwrist 206.336
lhand -7.3776 19.8494
lfingers 7.12502
lthumb 18.5076 48.989
rfemur 50.3902 6.87594 9.20718
rtibia -4.65156e-014
rfoot -3.25272 1.06989
rtoes -5.82768
lfemur -70.4805 -1.28487 -3.32061
ltibia 40.6736
lfoot -17.3736 14.3736
ltoes -25.051
163
root 4.64701 17.3769 -1.66679 -868.025 -73.7402 819.544
lowerback 40.6396 5.9852 2.21951
upperback 13.7448 4.90763 -10.6284
thorax -3.5548 1.89132 -14.5225
lowerneck 15.045 8.67514 2.57584
upperneck 32.0467 8.75313 4.56867
head 7.63618 3.86275 1.12612
rclavicle 4.11484e-014 -4.45278e-014
rhumerus -44.2616 14.2699 -95.8251
rradius 77.3141
rwrist -4.39188
rhand -23.717 19.4929
rfingers 7.12502
rthumb 2.75071 -10.4691
lclavicle 4.11484e-014 -4.45278e-014
lhumerus -55.4889 27.176 58.7562
lradius 127.125
lwrist 206.681
lhand -6.68521 20.2225
lfingers 7.12502
lthumb 19.1736 49.2974
rfemur 50.5625 6.80549 9.19911
rtibia 7.95139e-016
rfoot -3.32003 1.2415
rtoes -5.65682
lfemur -70.1297 -1.7721 -1.51209
ltibia 39.5172
lfoot -18.0768 14.8921
ltoes -22.8533
164
root 4.59662 17.3737 -1.67443 -869.282 -73.6745 820.717
lowerback 40.8316 6.02535 2.67786
upperback 13.7837 5.12058 -10.6398
thorax -3.48617 2.02173 -14.8804
lowerneck 15.3255 9.00243 2.59567
upperneck 32.0191 9.123 4.94489
head 7.56534 4.0632 1.2422
rclavicle 8.52289e-014 -1.1609e-013
rhumerus -44.353 13.3948 -96.1787
rradius 75.9486
rwrist -4.25323
rhand -23.8542 19.4588
rfingers 7.12502
rthumb 2.61814 -10.5049
lclavicle 8.52289e-014 -1.1609e-013
lhumerus -56.1278 27.8165 58.6045
lradius 127.237
lwrist 207.153
lhand -5.94907 20.4975
lfingers 7.12502
lthumb 19.8813 49.5005
rfemur 50.7356 6.74669 9.20971
rtibia -1.01778e-013
rfoot -3.39271 1.33091
rtoes -5.29036
lfemur -70.1181 -1.8339 -0.308311
ltibia 39.4484
lfoot -17.4048 14.445
ltoes -19.6233
